# AST/ASF file generated using VICON BodyLanguage
# -----------------------------------------------
:version 1.10
:name VICON
:units
  mass 1.0
  length 0.45
  angle deg
:documentation
   .ast/.asf automatically generated from VICON data using
   VICON BodyBuilder and BodyLanguage model FoxedUp or BRILLIANT.MOD
:root
   order TX TY TZ RX RY RZ
   axis XYZ
   position 0 0 0  
   orientation 0 0 0 
:bonedata
  begin
     id 1 
     name lhipjoint
     direction 0.611804 -0.747784 0.257906 
     length 2.29243 
     axis 0 0 0  XYZ
  end
  begin
     id 2 
     name lfemur
     direction 0.34202 -0.939693 0  
     length 7.31159  
     axis 0 0 20  XYZ
    dof rx ry rz
    limits (-160.0 20.0)
           (-70.0 70.0)
           (-60.0 70.0)
  end
  begin
     id 3 
     name ltibia
     direction 0.34202 -0.939693 0   
     length 7.33391   
     axis 0 0 20   XYZ
    dof rx
    limits (-10.0 170.0)
  end
  begin
     id 4 
     name lfoot
     direction 0.122263 -0.335914 0.933924   
     length 1.76083   
     axis -90 7.62852e-016 20   XYZ
    dof rx rz
    limits (-45.0 90.0)
           (-70.0 20.0)
  end
  begin
     id 5 
     name ltoes
     direction 1.53533e-011 -4.2177e-011 1   
     length 0.879206   
     axis -90 7.62852e-016 20   XYZ
    dof rx
    limits (-90.0 20.0)
  end
  begin
     id 6 
     name rhipjoint
     direction -0.646469 -0.721248 0.248754   
     length 2.37677  
     axis 0 0 0  XYZ 
  end
  begin
     id 7 
     name rfemur
     direction -0.34202 -0.939693 0   
     length 7.18623   
     axis 0 0 -20   XYZ
    dof rx ry rz
    limits (-160.0 20.0)
           (-70.0 70.0)
           (-70.0 60.0)
  end
  begin
     id 8 
     name rtibia
     direction -0.34202 -0.939693 0   
     length 7.36567   
     axis 0 0 -20   XYZ
    dof rx
    limits (-10.0 170.0)
 end
 begin
     id 9 
     name rfoot
     direction -0.126681 -0.348054 0.928876   
     length 1.71902  
     axis -90 -7.62852e-016 -20   XYZ
    dof rx rz
    limits (-45.0 90.0)
           (-20.0 70.0)
  end
  begin
     id 10 
     name rtoes
     direction -1.53551e-011 -4.21898e-011 1   
     length 0.857792   
     axis -90 -7.62852e-016 -20   XYZ
    dof rx
    limits (-90.0 20.0)
  end
  begin
     id 11 
     name lowerback
     direction 0.0106509 0.999778 0.0181844   
     length 2.07668   
     axis 0 0 0   XYZ
    dof rx ry rz
    limits (-20.0 45.0)
           (-30.0 30.0)
           (-30.0 30.0)
  end
  begin
     id 12 
     name upperback
     direction -0.00456018 0.999989 -0.000590935   
     length 2.08011   
     axis 0 0 0   XYZ
    dof rx ry rz
    limits (-20.0 45.0)
           (-30.0 30.0)
           (-30.0 30.0)
  end
  begin
     id 13 
     name thorax
     direction -0.00910382 0.999916 -0.00923765   
     length 2.07397   
     axis 0 0 0   XYZ
    dof rx ry rz
    limits (-20.0 45.0)
           (-30.0 30.0)
           (-30.0 30.0)
  end
  begin
     id 14 
     name lowerneck
     direction 0.00171967 0.99778 0.0665733   
     length 1.67556   
     axis 0 0 0   XYZ
    dof rx ry rz
    limits (-20.0 45.0)
           (-30.0 30.0)
           (-30.0 30.0)
  end
  begin
     id 15 
     name upperneck
     direction -0.0143166 0.991302 -0.130828   
     length 1.68462   
     axis 0 0 0   XYZ
    dof rx ry rz
    limits (-20.0 45.0)
           (-30.0 30.0)
           (-30.0 30.0)
  end
  begin
     id 16
     name head
     direction -0.00606378 0.998665 -0.0512995  
     length 1.69269  
     axis 0 0 0   XYZ
    dof rx ry rz
    limits (-20.0 45.0)
           (-30.0 30.0)
           (-30.0 30.0)
  end
  begin
     id 17 
     name lclavicle
     direction 0.9638 0.179341 0.197297  
     length 4.12888  
     axis 0 0 0   XYZ
    dof ry rz
    limits (-20.0 10.0)
           (0.0 20.0)
  end
  begin
     id 18 
     name lhumerus
     direction 1 -4.48972e-011 -2.47351e-027   
     length 5.01834   
     axis -180 -30 -90   XYZ
    dof rx ry rz
    limits (-60.0 90.0)
           (-90.0 90.0)
           (-90.0 90.0)
  end
  begin
     id 19
     name lradius
     direction 1 -4.48965e-011 1.51591e-026   
     length 3.4869   
     axis -180 -30 -90   XYZ
    dof rx
    limits (-10.0 170.0)
  end
  begin
     id 20
     name lwrist
     direction 1 -4.48957e-011 2.70032e-026   
     length 1.74345   
     axis -1.81515e-014 90 90   XYZ
    dof ry
    limits (-180.0 0.0)
 end
  begin
     id 21 
     name lhand
     direction 1 -4.48951e-011 5.40064e-026   
     length 0.76799   
     axis -3.44607e-014 90 90   XYZ
    dof rx rz
    limits (-90.0 90.0)
           (-45.0 45.0)
  end
  begin
     id 22 
     name lfingers
     direction 1 -4.48971e-011 1.08013e-025   
     length 0.619174   
     axis -6.89214e-014 90 90   XYZ
    dof rx
    limits (0.0 90.0)
  end
  begin
     id 23
     name lthumb
     direction 0.707107 -6.34931e-011 0.707107   
     length 0.889013   
     axis -90 45 2.85299e-015   XYZ
    dof rx rz
    limits (-45.0 45.0)
           (-45.0 45.0)
  end
  begin
     id 24 
     name rclavicle
     direction -0.961409 0.252588 0.109054   
     length 4.04305  
     axis 0 0 0   XYZ 
    dof ry rz
    limits (-10.0 20.0)
           (-20.0 0.0)
  end
  begin
     id 25 
     name rhumerus
     direction -1 -4.4897e-011 1.33872e-017  
     length 4.70164   
     axis -180 30 90   XYZ
    dof rx ry rz
    limits (-90.0 60.0)
           (-90.0 90.0)
           (-90.0 90.0)
  end
  begin
     id 26 
     name rradius
     direction -1 -4.48954e-011 1.83844e-026   
     length 3.49911   
     axis -180 30 90   XYZ
    dof rx
    limits (-10.0 170.0)
  end
  begin
     id 27 
     name rwrist
     direction -1 -4.49008e-011 2.70032e-026   
     length 1.74955   
     axis -1.81515e-014 -90 -90   XYZ
    dof ry
    limits (-180.0 0.0)
  end
  begin
     id 28
     name rhand
     direction -1 -4.48916e-011 5.40064e-026   
     length 0.739335   
     axis -3.44607e-014 -90 -90   XYZ
    dof rx rz
    limits (-90.0 90.0)
           (-45.0 45.0)
  end
  begin
     id 29
     name rfingers
     direction -1 -4.48987e-011 1.08013e-025   
     length 0.596071   
     axis -6.89214e-014 -90 -90   XYZ
    dof rx
    limits (0.0 90.0)
  end
  begin
     id 30
     name rthumb
     direction -0.707107 -6.34935e-011 0.707107   
     length 0.855843   
     axis -90 -45 -2.85299e-015   XYZ
    dof rx rz
    limits (-45.0 45.0)
           (-45.0 45.0)
  end
:hierarchy
  begin
    root lhipjoint rhipjoint lowerback
    lhipjoint lfemur
    lfemur ltibia
    ltibia lfoot
    lfoot ltoes
    rhipjoint rfemur
    rfemur rtibia
    rtibia rfoot
    rfoot rtoes
    lowerback upperback
    upperback thorax
    thorax lowerneck lclavicle rclavicle
    lowerneck upperneck
    upperneck head
    lclavicle lhumerus
    lhumerus lradius
    lradius lwrist
    lwrist lhand lthumb
    lhand lfingers
    rclavicle rhumerus
    rhumerus rradius
    rradius rwrist
    rwrist rhand rthumb
    rhand rfingers
  end

#!OML:ASF I:\salsa\salsa 7_09\Patient 1\Session 1\dancermale.ASF
:FULLY-SPECIFIED
:DEGREES
886
root 6.72928 16.4934 2.05377 317.806 -82.6365 50.3981
lowerback -7.48941 -1.34771 -1.35838
upperback 2.39608 -1.73253 1.00453
thorax 6.78848 -0.933518 1.58533
lowerneck -5.78678 5.03378 3.80302
upperneck 12.5053 7.48781 -9.52209
head 5.21106 3.19768 -3.10734
rclavicle -4.96962e-015 -7.15625e-015
rhumerus -31.5311 3.25511 -92.7932
rradius 104.996
rwrist -13.7006
rhand -50.8812 6.478
rfingers 7.12502
rthumb -23.4346 -22.115
lclavicle -4.96962e-015 -7.15625e-015
lhumerus -33.8596 -37.4961 98.6104
lradius 81.3812
lwrist 54.4077
lhand -36.0229 73.6175
lfingers 7.12502
lthumb -9.13186 -103.4
rfemur -16.3457 -47.0642 16.1079
rtibia 63.6481
rfoot -12.0126 -7.89152
rtoes -31.1692
lfemur -204.095 183.506 -215.146
ltibia 40.8011
lfoot -25.6629 -5.89356
ltoes 37.7334
887
root 6.71639 16.5206 1.98709 324.453 -81.9154 43.9053
lowerback -8.03516 -1.44179 -1.28749
upperback 2.44683 -1.868 1.10738
thorax 7.16337 -1.00164 1.6225
lowerneck -5.70012 4.84109 3.60022
upperneck 12.333 7.23488 -9.5224
head 5.11819 3.0729 -3.09495
rclavicle -3.97569e-016 -1.51076e-014
rhumerus -31.7981 3.52363 -93.2533
rradius 104.419
rwrist -12.8858
rhand -51.0819 6.76373
rfingers 7.12502
rthumb -23.6271 -21.8045
lclavicle -3.97569e-016 -1.51076e-014
lhumerus -35.0284 -37.6458 100.757
lradius 83.1599
lwrist 54.4236
lhand -36.4031 73.0215
lfingers 7.12502
lthumb -9.49874 -102.787
rfemur -19.3084 -48.6548 15.3265
rtibia 68.4068
rfoot -10.7896 -13.5845
rtoes -30.8429
lfemur -203.476 183.578 -214.773
ltibia 39.5827
lfoot -25.169 -6.42668
ltoes 37.443
888
root 6.69451 16.5581 1.91381 332.311 -81.0911 36.3737
lowerback -8.74828 -1.68897 -1.22868
upperback 2.35892 -2.22196 1.4182
thorax 7.50634 -1.18111 1.84821
lowerneck -5.57698 4.70109 3.46922
upperneck 12.2689 7.07226 -9.69326
head 5.06775 2.9809 -3.14156
rclavicle -5.76476e-015 -2.94201e-014
rhumerus -32.4281 3.99731 -93.7135
rradius 104.001
rwrist -11.9032
rhand -51.2089 6.91737
rfingers 7.12502
rthumb -23.749 -21.6351
lclavicle -5.76476e-015 -2.94201e-014
lhumerus -36.1243 -37.5307 103.178
lradius 85.2268
lwrist 54.6694
lhand -36.3674 72.5026
lfingers 7.12502
lthumb -9.46426 -102.27
rfemur -21.9505 -48.5471 15.1595
rtibia 71.2945
rfoot -10.9084 -17.7572
rtoes -21.9893
lfemur -203.249 184.077 -214.065
ltibia 38.6849
lfoot -24.824 -6.74687
ltoes 36.5777
889
root 6.70362 16.6131 1.82809 337.645 -80.8014 31.3485
lowerback -8.89884 -1.74234 -1.18593
upperback 2.17308 -2.32314 1.77212
thorax 7.41346 -1.23658 2.18011
lowerneck -5.34174 4.50836 3.52562
upperneck 12.132 6.82134 -9.92505
head 4.97742 2.85673 -3.24618
rclavicle -1.8487e-014 2.38542e-015
rhumerus -33.3644 4.46013 -94.1991
rradius 103.735
rwrist -11.251
rhand -50.6011 7.4067
rfingers 7.12502
rthumb -23.1659 -21.2203
lclavicle -1.8487e-014 2.38542e-015
lhumerus -36.9441 -37.3799 105.633
lradius 87.5603
lwrist 54.9332
lhand -34.9704 72.9089
lfingers 7.12502
lthumb -8.11617 -102.733
rfemur -24.6262 -45.8253 15.5128
rtibia 72.7499
rfoot -11.0116 -20.3647
rtoes -11.4498
lfemur -203.474 184.21 -213.119
ltibia 38.1483
lfoot -24.6323 -6.68261
ltoes 35.7795
890
root 6.7453 16.6846 1.73323 342.103 -81.1194 27.1441
lowerback -8.44165 -1.60763 -1.01551
upperback 1.90833 -2.19086 2.16989
thorax 6.87226 -1.17074 2.53642
lowerneck -5.2117 4.31934 3.34678
upperneck 11.983 6.56856 -9.92087
head 4.88574 2.73338 -3.23537
rclavicle 2.88238e-014 -4.13472e-014
rhumerus -34.6255 4.83362 -94.6606
rradius 103.663
rwrist -10.5352
rhand -49.8262 7.69765
rfingers 7.12502
rthumb -22.4223 -21.0209
lclavicle 2.88238e-014 -4.13472e-014
lhumerus -37.4582 -37.3508 108.043
lradius 90.0303
lwrist 55.445
lhand -32.1352 73.5271
lfingers 7.12502
lthumb -5.37924 -103.439
rfemur -27.3464 -41.7673 16.0596
rtibia 73.4533
rfoot -9.42607 -20.7382
rtoes -4.3544
lfemur -203.829 183.954 -211.852
ltibia 37.6226
lfoot -24.5071 -6.40347
ltoes 35.5301
891
root 6.79354 16.7554 1.63672 345.335 -81.6312 24.1891
lowerback -7.88906 -1.38842 -0.894492
upperback 1.65927 -1.9247 2.42038
thorax 6.28252 -1.03619 2.78154
lowerneck -5.07948 4.10561 3.14924
upperneck 11.6444 6.25269 -9.74489
head 4.72603 2.59663 -3.17105
rclavicle -2.66371e-014 3.02153e-014
rhumerus -36.0118 4.94255 -95.1961
rradius 103.579
rwrist -9.74643
rhand -49.0362 8.09787
rfingers 7.12502
rthumb -21.6638 -20.7101
lclavicle -2.66371e-014 3.02153e-014
lhumerus -37.6492 -37.6191 110.272
lradius 92.5021
lwrist 55.8114
lhand -31.1596 73.8498
lfingers 7.12502
lthumb -4.43722 -103.783
rfemur -29.8112 -36.899 15.986
rtibia 73.4719
rfoot -8.41558 -19.3297
rtoes 4.12341
lfemur -204.141 183.717 -210.722
ltibia 36.9951
lfoot -24.4575 -5.91433
ltoes 35.0811
892
root 6.83476 16.8293 1.54719 348.722 -82.0942 21.286
lowerback -7.67727 -1.18645 -0.657095
upperback 1.41954 -1.68203 2.53505
thorax 5.89114 -0.906494 2.80415
lowerneck -5.03069 3.86032 2.99881
upperneck 11.2228 5.88046 -9.51103
head 4.55272 2.4387 -3.09768
rclavicle 9.93923e-016 -1.98785e-014
rhumerus -37.4408 4.80541 -95.7977
rradius 103.447
rwrist -8.89279
rhand -48.3616 8.327
rfingers 7.12502
rthumb -21.0158 -20.5543
lclavicle 9.93923e-016 -1.98785e-014
lhumerus -37.5303 -38.109 112.279
lradius 94.9165
lwrist 56.3638
lhand -31.8565 72.9344
lfingers 7.12502
lthumb -5.11022 -102.853
rfemur -32.1676 -31.9298 15.6114
rtibia 72.7136
rfoot -6.86024 -18.0223
rtoes 6.5467
lfemur -204.415 183.796 -209.71
ltibia 35.9958
lfoot -24.093 -5.1632
ltoes 34.247
893
root 6.85558 16.9027 1.46377 351.946 -82.0744 18.5018
lowerback -7.73865 -1.20895 -0.553324
upperback 1.30613 -1.72719 2.62442
thorax 5.8091 -0.926113 2.83287
lowerneck -5.06256 3.64258 2.77879
upperneck 10.7174 5.55391 -9.33395
head 4.37244 2.29675 -3.02564
rclavicle 5.96354e-016 3.02153e-014
rhumerus -38.7422 4.77051 -96.2815
rradius 103.355
rwrist -8.36299
rhand -47.9858 8.14241
rfingers 7.12502
rthumb -20.6548 -20.7786
lclavicle 5.96354e-016 3.02153e-014
lhumerus -36.8639 -38.5546 114.015
lradius 97.2834
lwrist 56.7068
lhand -32.9155 72.2026
lfingers 7.12502
lthumb -6.13264 -102.094
rfemur -33.8269 -27.2932 14.5344
rtibia 70.9665
rfoot -7.21844 -17.753
rtoes 10.2466
lfemur -204.218 184.585 -208.905
ltibia 34.5274
lfoot -23.54 -4.38039
ltoes 34.9851
894
root 6.87224 16.9796 1.3781 354.789 -81.819 15.6096
lowerback -7.3454 -1.38501 -0.535524
upperback 1.36274 -1.97031 2.74655
thorax 5.66269 -1.04831 2.92643
lowerneck -4.99021 3.47583 2.581
upperneck 9.97466 5.29457 -9.31818
head 4.1135 2.18947 -3.00446
rclavicle 8.94531e-015 1.74931e-014
rhumerus -39.9786 4.95589 -96.766
rradius 103.314
rwrist -8.45127
rhand -47.8488 8.19339
rfingers 7.12502
rthumb -20.5231 -20.7418
lclavicle 8.94531e-015 1.74931e-014
lhumerus -35.7264 -38.8132 115.383
lradius 99.8386
lwrist 57.191
lhand -34.2586 71.2177
lfingers 7.12502
lthumb -7.4292 -101.067
rfemur -34.3704 -23.4822 13.1566
rtibia 68.3135
rfoot -8.27368 -18.2124
rtoes 13.0955
lfemur -203.304 185.791 -208.098
ltibia 32.7308
lfoot -22.9112 -3.57235
ltoes 36.1798
895
root 6.88292 17.0522 1.28895 357.37 -81.4089 13.1618
lowerback -7.172 -1.63549 -0.587869
upperback 1.36013 -2.30435 2.83672
thorax 5.58687 -1.21683 3.0129
lowerneck -5.04912 3.32856 2.28865
upperneck 9.38101 5.06778 -9.17674
head 3.91973 2.09313 -2.92483
rclavicle -9.93923e-016 0
rhumerus -41.2397 5.01039 -97.1562
rradius 103.362
rwrist -8.79901
rhand -47.3238 8.01264
rfingers 7.12502
rthumb -20.0186 -20.9762
lclavicle -9.93923e-016 0
lhumerus -34.3109 -39.0216 116.481
lradius 102.386
lwrist 57.5014
lhand -37.614 70.9941
lfingers 7.12502
lthumb -10.667 -100.703
rfemur -34.7316 -20.2475 11.91
rtibia 64.7936
rfoot -8.85408 -19.5941
rtoes 13.6725
lfemur -202.578 187.104 -207.362
ltibia 31.0202
lfoot -22.2433 -2.64117
ltoes 35.484
896
root 6.88907 17.1261 1.2001 359.677 -80.8812 11.0556
lowerback -7.07459 -1.96188 -0.656724
upperback 1.32246 -2.73837 2.92998
thorax 5.52631 -1.43515 3.09933
lowerneck -5.14648 3.18353 2.13638
upperneck 8.96872 4.8542 -9.14062
head 3.79482 1.99569 -2.89919
rclavicle 2.96189e-014 -7.15625e-015
rhumerus -42.4954 5.12768 -97.3592
rradius 103.382
rwrist -9.5168
rhand -46.4698 8.00444
rfingers 7.12502
rthumb -19.1975 -21.0681
lclavicle 2.96189e-014 -7.15625e-015
lhumerus -32.5623 -39.2802 117.281
lradius 104.801
lwrist 57.8448
lhand -43.1753 70.8105
lfingers 7.12502
lthumb -16.0271 -100.168
rfemur -34.7214 -17.5727 10.6122
rtibia 60.5862
rfoot -9.99462 -20.3831
rtoes 14.6369
lfemur -201.845 188.031 -206.678
ltibia 29.1948
lfoot -21.4878 -1.89508
ltoes 34.1421
897
root 6.89132 17.1985 1.11293 361.356 -80.3303 9.62759
lowerback -7.00327 -2.37997 -0.77921
upperback 1.24791 -3.28828 3.00897
thorax 5.45401 -1.71164 3.18741
lowerneck -5.18663 3.12061 2.11669
upperneck 8.541 4.75042 -9.24462
head 3.66887 1.95154 -2.93312
rclavicle 3.26007e-014 -2.3059e-014
rhumerus -43.7625 5.51622 -97.5203
rradius 103.31
rwrist -10.3612
rhand -45.7764 7.88388
rfingers 7.12502
rthumb -18.5306 -21.2535
lclavicle 3.26007e-014 -2.3059e-014
lhumerus -30.4125 -39.4302 117.62
lradius 107.002
lwrist 57.8997
lhand -45.9405 68.4663
lfingers 7.12502
lthumb -18.6884 -97.5885
rfemur -34.3216 -15.2618 9.23093
rtibia 55.6089
rfoot -10.9893 -20.369
rtoes 14.1583
lfemur -201.067 188.649 -206.034
ltibia 26.9427
lfoot -20.3461 -1.61436
ltoes 34.1253
898
root 6.8891 17.2662 1.02782 363.122 -79.7851 8.16256
lowerback -7.0057 -2.82637 -0.775337
upperback 1.15319 -3.88575 3.06135
thorax 5.3987 -2.00693 3.16861
lowerneck -5.12028 3.13144 2.16924
upperneck 7.93385 4.72585 -9.33582
head 3.47725 1.95851 -2.9724
rclavicle -1.98785e-014 1.27222e-014
rhumerus -44.9239 5.96405 -97.6649
rradius 103.222
rwrist -11.1655
rhand -45.0443 8.11167
rfingers 7.12502
rthumb -17.8263 -21.0913
lclavicle -1.98785e-014 1.27222e-014
lhumerus -28.0417 -39.5335 117.426
lradius 109.086
lwrist 57.968
lhand -45.7675 66.053
lfingers 7.12502
lthumb -18.522 -95.1912
rfemur -33.5854 -13.3266 8.13205
rtibia 50.0149
rfoot -10.9957 -19.5419
rtoes 10.2583
lfemur -200.32 188.69 -205.329
ltibia 24.5347
lfoot -19.1062 -1.95028
ltoes 33.8736
899
root 6.87969 17.3323 0.94303 365.275 -79.3228 6.23938
lowerback -6.90333 -3.24663 -0.621249
upperback 1.00162 -4.46106 3.14276
thorax 5.21431 -2.28678 3.10595
lowerneck -4.94702 3.21745 2.24684
upperneck 7.09873 4.76392 -9.16848
head 3.54439 2.0345 -3.26555
rclavicle -3.65764e-014 -7.15625e-015
rhumerus -46.2534 6.44298 -97.7273
rradius 103.299
rwrist -11.6307
rhand -44.3993 8.15096
rfingers 7.12502
rthumb -17.2056 -21.1073
lclavicle -3.65764e-014 -7.15625e-015
lhumerus -25.597 -39.5429 116.896
lradius 110.947
lwrist 58.0202
lhand -42.7576 59.502
lfingers 7.12502
lthumb -15.6249 -271.109
rfemur -32.3229 -11.5135 7.40954
rtibia 43.591
rfoot -10.2755 -17.8456
rtoes 4.11206
lfemur -199.477 188.179 -204.512
ltibia 22.1875
lfoot -17.9743 -2.6732
ltoes 33.2736
900
root 6.86268 17.3963 0.858846 367.811 -78.9588 3.89996
lowerback -6.81782 -3.65282 -0.354491
upperback 0.838725 -5.02934 3.26774
thorax 5.02008 -2.5618 3.02884
lowerneck -4.80023 3.38166 2.23062
upperneck 6.65331 4.95771 -9.22035
head 3.37584 2.1438 -3.26627
rclavicle 8.15017e-015 -8.74653e-015
rhumerus -47.6423 7.07351 -97.7401
rradius 103.36
rwrist -11.5318
rhand -43.8479 8.06085
rfingers 7.12502
rthumb -16.6748 -21.2429
lclavicle 8.15017e-015 -8.74653e-015
lhumerus -23.1918 -39.3392 116.115
lradius 112.656
lwrist 57.815
lhand -42.2995 54.8255
lfingers 7.12502
lthumb -15.1836 -275.752
rfemur -31.0613 -9.74077 7.1907
rtibia 37.8302
rfoot -9.96836 -16.2919
rtoes -0.284852
lfemur -198.682 188.002 -203.55
ltibia 20.0738
lfoot -17.071 -3.00026
ltoes 33.1423
